<svg xmlns="http://www.w3.org/2000/svg" viewBox="0 0 64 64">
  <rect width="64" height="64" rx="14" fill="#145552"/>
  <path
    d="M39.8 17.2c-2.3-1.2-5.1-1.8-8.2-1.8-7.1 0-12.3 3.7-12.3 9.5 0 5.1 3.6 7.3 10.2 8.9 5 1.2 6.8 2.2 6.8 4.5 0 2.5-2.3 4-6 4-3.5 0-7-1.2-10.1-3.4l-3.1 6.2c3.5 2.5 8.1 3.9 13 3.9 7.8 0 13.2-3.8 13.2-10.1 0-5.3-3.4-7.7-10.6-9.4-4.8-1.1-6.5-2-6.5-4.1 0-2.2 2.1-3.5 5.4-3.5 3.1 0 5.9.9 8.3 2.4l2.8-6.1z"
    fill="#f7f1df"
  />
  <path d="M18 54h28" stroke="#c66a43" stroke-width="4" stroke-linecap="round" />
</svg>
